# xmcd
#
# Track frame offsets:
#   150
#   17252
#   32214
#   48708
#   64473
#   80134
#   96251
#   110704
#   128304
#   142112
#   159695
#   172989
#   185970
#   206096
#   222297
#   237194
#   252601
#   265882
#   281586
#
# Disc length: 4005 seconds
#
# Revision: 0
# Processed by: cddbd v1.5.2PL0 Copyright (c) Steve Scherf et al.
# Submitted via: uFREEDB ActiveX Control 1.5
#
DISCID=290fa313
DTITLE=JORGE E MATEUS - JORGE E MATEUS
DYEAR=2009
DGENRE=Country
TTITLE0=PIRRACA
TTITLE1=ESPELHO
TTITLE2=BAO DEMAIS
TTITLE3=200 POR HORA
TTITLE4=PRA NUNCA DIZER A DEUS
TTITLE5=VOA BEIJA FLOR
TTITLE6=MISTERIOS
TTITLE7=BANDEIRA BRANCA
TTITLE8=SAUDADE
TTITLE9=O MUNDO E TAO PEQUENO
TTITLE10=AMOR COVARDE
TTITLE11=SE EU PEDIR CE VOLTA
TTITLE12=SO EU SEI
TTITLE13=NAO SAI DA MINHA VIDA
TTITLE14=EU SO QUERO TE AMAR
TTITLE15=QUEBRE O SILENCIO
TTITLE16=SO FALTA VOCE
TTITLE17=O QUE OS OLHOS NAO VE CORACAO NAO SENTE
TTITLE18=TUDO OU NADA
EXTD=
EXTT0=
EXTT1=
EXTT2=
EXTT3=
EXTT4=
EXTT5=
EXTT6=
EXTT7=
EXTT8=
EXTT9=
EXTT10=
EXTT11=
EXTT12=
EXTT13=
EXTT14=
EXTT15=
EXTT16=
EXTT17=
EXTT18=
PLAYORDER=
